<svg width="1024" height="1024" viewBox="0 0 1024 1024" fill="none" xmlns="http://www.w3.org/2000/svg">
<path d="M837.451 783.843C709.343 721.74 642.044 933.5 511.902 933.5C381.76 933.5 314.657 721.74 186.549 783.843C166.214 671.857 219.824 624.008 221.118 595.503C221.796 580.571 216.441 551.269 202.817 539.509C173.331 514.057 129.612 267.686 233.319 144.5C346.176 287.029 428.531 288.047 463.1 379.673C490.551 374.583 535.287 374.583 560.705 379.673C595.274 288.047 677.824 287.029 790.681 144.5C894.388 267.686 850.669 514.057 821.183 539.509C807.559 551.269 802.204 580.571 802.882 595.503C804.176 624.008 857.786 671.857 837.451 783.843Z" fill="#FAFAFA"/>
<path d="M630.479 682.809C744.192 659.41 763.49 649.236 753.333 547.5C780.756 575.986 783.141 640.08 774.662 656.358C766.183 672.635 773.404 708.702 753.333 741.816C736.067 770.302 661.308 784.409 630.479 799.806C616.219 806.927 604.031 824.222 604.031 833.378C603.354 820.831 604.109 802.858 619.217 788.615C643.593 765.634 696.456 764.198 712.707 750.972C725.707 740.392 736.067 728.59 734.036 707.226C728.957 724.521 668.018 754.024 637.548 756.059C561.34 761.148 551.944 812.014 553.299 840.5C536.033 803.197 544.775 700.445 630.479 682.809Z" fill="#BF0000"/>
<path d="M394.796 682.809C280.107 659.41 260.643 649.236 270.887 547.5C243.229 575.986 240.824 640.08 249.375 656.358C257.927 672.635 250.644 708.702 270.887 741.816C288.302 770.302 363.702 784.409 394.796 799.806C409.178 806.927 421.47 824.222 421.47 833.378C422.153 820.831 421.392 802.858 406.154 788.615C381.569 765.634 328.252 764.198 311.862 750.972C298.75 740.392 288.302 728.59 290.35 707.226C295.472 724.521 356.935 754.024 387.666 756.059C464.529 761.148 474.004 812.014 472.638 840.5C490.053 803.197 481.235 700.445 394.796 682.809Z" fill="#BF0000"/>
<path d="M652.64 582.025C670.043 570.664 692.551 588.223 709.924 565.5C711.969 631.602 672.09 627.47 656.744 621.273C641.398 615.076 637.344 592.011 652.64 582.025Z" fill="#BF0000"/>
<path d="M372.504 582.025C355.36 570.664 333.188 588.223 316.075 565.5C314.061 631.602 353.344 627.47 368.461 621.273C383.578 615.076 387.571 592.011 372.504 582.025Z" fill="#BF0000"/>
<path d="M569 646.5C608.722 592.57 664.741 577.307 679 530.5C622.981 579.342 579.185 570.184 569 646.5Z" fill="#0A0A0A"/>
<path d="M455 646.5C415.639 592.57 360.13 577.307 346 530.5C401.509 579.342 444.907 570.184 455 646.5Z" fill="#0A0A0A"/>
<path d="M581.784 527.88C584.317 566.607 539.061 586.047 553.316 660.5C553.316 586.015 624.615 555.418 628.661 497.315C633.408 429.147 586.914 423.145 577.75 421.832C568.586 420.519 555.975 422.671 550.223 436.091C534.933 471.767 578.85 483.005 581.784 527.88Z" fill="#0A0A0A"/>
<path d="M442.216 527.88C439.683 566.607 484.939 586.047 470.684 660.5C470.684 586.015 399.385 555.418 395.339 497.315C390.592 429.147 437.086 423.145 446.25 421.832C455.414 420.519 468.025 422.671 473.777 436.091C489.067 471.767 445.15 483.005 442.216 527.88Z" fill="#0A0A0A"/>
<path d="M530.696 919.489C525.268 920.531 512.5 920.5 512.5 920.5C512.5 920.5 499.732 920.523 494.304 919.481C479.141 916.571 466 900.303 466 886.17C466 874.059 494.272 882.14 512.5 882.142C530.728 882.143 559 874.066 559 886.178C559 900.311 545.859 916.579 530.696 919.489Z" fill="#0A0A0A"/>
<path d="M805.791 462.747C790.337 509.643 766.642 516.779 774.884 554.5C765.612 540.227 739.855 508.623 711.009 496.39C746.036 442.357 749.127 397.5 747.066 376.091C746.773 373.046 741.572 372.013 740.885 376.091C739.855 382.208 738.825 398.519 691.434 481.097C658.491 450.513 647.163 431.143 646.129 421.968C642.901 393.422 700.743 319 786.219 240.5C798.582 259.87 821.244 415.851 805.791 462.747Z" fill="#BF0000"/>
<path d="M220.146 462.747C235.412 509.643 258.82 516.779 250.678 554.5C259.838 540.227 285.283 508.623 313.779 496.39C279.176 442.357 276.123 397.5 278.159 376.091C278.448 373.046 283.587 372.013 284.265 376.091C285.283 382.208 286.301 398.519 333.116 481.097C365.66 450.513 376.851 431.143 377.873 421.968C381.062 393.422 323.921 319 239.48 240.5C227.268 259.87 204.88 415.851 220.146 462.747Z" fill="#BF0000"/>
<path d="M616.935 708.882C594.445 722.283 575.199 753.671 575.199 753.671C575.199 753.671 614.899 740.438 646.455 738.402C683.101 736.038 717.711 684.451 717.711 684.451C717.711 684.451 649.074 689.73 616.935 708.882Z" fill="#0A0A0A"/>
<path d="M407.237 708.882C429.727 722.283 448.973 753.671 448.973 753.671C448.973 753.671 409.273 740.438 377.717 738.402C341.071 736.038 306.46 684.451 306.46 684.451C306.46 684.451 375.098 689.73 407.237 708.882Z" fill="#0A0A0A"/>
</svg>
